<?xml version="1.0" standalone="no"?>
<!DOCTYPE svg PUBLIC "-//W3C//DTD SVG 20010904//EN"
 "http://www.w3.org/TR/2001/REC-SVG-20010904/DTD/svg10.dtd">
<svg version="1.0" xmlns="http://www.w3.org/2000/svg"
 width="600.000000pt" height="600.000000pt" viewBox="0 0 600.000000 600.000000"
 preserveAspectRatio="xMidYMid meet">
<metadata>
Created by potrace 1.14, written by Peter Selinger 2001-2017
</metadata>
<g transform="translate(0.000000,600.000000) scale(0.100000,-0.100000)"
fill="#000000" stroke="none">
<path d="M1405 4911 c-3 -2 -5 -37 -5 -78 l0 -73 190 0 190 0 0 -1470 0 -1470
-224 0 -225 0 4 -82 4 -83 1578 1 c868 0 1591 3 1608 7 18 4 32 2 37 -6 5 -8
10 -8 16 -2 7 8 34 692 42 1058 l1 38 -80 -2 c-43 -1 -83 -4 -88 -8 -5 -3 -26
-55 -47 -116 -174 -512 -443 -747 -907 -795 -56 -5 -256 -10 -445 -10 l-344 0
0 720 0 720 83 0 c438 0 643 -163 698 -555 l12 -87 91 4 91 3 3 288 c2 230 0
287 -10 281 -11 -6 -11 -5 0 8 9 11 12 109 12 417 l-1 401 -92 0 -92 0 -23
-97 c-54 -223 -143 -356 -287 -427 -111 -54 -268 -81 -412 -69 l-73 6 0 664 0
664 438 -4 437 -4 94 -26 c109 -32 186 -70 258 -130 100 -82 225 -259 317
-451 21 -45 43 -84 50 -88 6 -4 48 -8 94 -8 l82 0 0 328 c0 181 -3 376 -6 433
l-7 104 -1529 1 c-841 0 -1531 -2 -1533 -5z m925 -295 c0 -3 -4 -8 -10 -11 -5
-3 -10 -1 -10 4 0 6 5 11 10 11 6 0 10 -2 10 -4z m108 -520 c-7 -8 -15 -12
-17 -11 -5 6 10 25 20 25 5 0 4 -6 -3 -14z m1152 -411 c0 0 -11 -2 -24 -3 -13
-1 -27 5 -30 13 -3 8 -1 15 3 15 5 0 12 -6 14 -12 4 -9 6 -8 6 3 1 8 -4 20
-10 26 -6 6 -8 16 -4 23 4 6 14 -4 26 -27 10 -20 19 -38 19 -38z m-13 -21 c-3
-3 -12 -4 -19 -1 -8 3 -5 6 6 6 11 1 17 -2 13 -5z m-1732 -1863 c-3 -6 -11
-11 -16 -11 -5 0 -4 6 3 14 14 16 24 13 13 -3z m2710 -110 c-3 -6 -14 -11 -23
-11 -13 0 -13 2 4 14 21 15 30 14 19 -3z"/>
</g>
</svg>
